<svg width="54" height="49" viewBox="0 0 54 49" fill="none" xmlns="http://www.w3.org/2000/svg">
<g id="panorama-variant">
<path id="Vector" d="M46.575 8.37083C42.075 9.8 35.775 11.2292 27 11.2292C18.225 11.2292 11.475 9.59584 7.425 8.37083C6.075 7.75833 4.5 8.77917 4.5 10.2083V38.7917C4.5 40.2208 6.075 41.2417 7.425 40.8333C12.15 39.4042 18.225 37.7708 27 37.7708C35.775 37.7708 42.075 39.4042 46.575 40.8333C48.15 41.2417 49.5 40.2208 49.5 38.7917V10.2083C49.5 8.77917 47.925 7.75833 46.575 8.37083ZM27 30.625C21.825 30.625 16.875 30.8292 12.375 31.4417L20.7 22.4583L25.2 27.3583L31.5 20.4167L41.625 31.4417C37.125 30.8292 32.175 30.625 27 30.625Z" fill="black"/>
</g>
</svg>
