<svg width="90" height="144" viewBox="0 0 90 144" fill="none" xmlns="http://www.w3.org/2000/svg">
<path d="M30.1431 122.4H52.7504V144H30.1431V122.4ZM45.2146 0C85.5309 1.584 103.089 40.464 79.1255 69.624C72.8708 76.824 62.7729 81.576 57.7993 87.624C52.7504 93.6 52.7504 100.8 52.7504 108H30.1431C30.1431 95.976 30.1431 85.824 35.192 78.624C40.1656 71.424 50.2635 67.176 56.5182 62.424C74.7548 46.296 70.2333 23.472 45.2146 21.6C39.2188 21.6 33.4685 23.8757 29.2288 27.9265C24.9891 31.9773 22.6073 37.4713 22.6073 43.2H0C0 31.7426 4.76367 20.7546 13.243 12.653C21.7224 4.55141 33.2229 0 45.2146 0Z" fill="#D2B6FF"/>
</svg>
